# xmcd
#
# Track frame offsets:
#	150
#	16556
#	29068
#	42915
#	59619
#	79538
#	92307
#	110217
#	130776
#	149220
#	167817
#
# Disc length: 2489 seconds
#
# Revision: 1
# Processed by: cddbd v1.5.2PL0 Copyright (c) Steve Scherf et al.
# Submitted via: audiograbber 1.83.01
#
DISCID=9309b70b
DTITLE=Jamie O'Neal - Eternal
DYEAR=2014
DGENRE=Country
TTITLE0=Born To Run
TTITLE1=Don't Come Home A Drinkin' (With Lovin' On Your Mind)
TTITLE2=Golden Ring
TTITLE3=Help Me Make It Through The Night
TTITLE4=I've Done Enough Dyin' Today
TTITLE5=Just One Time
TTITLE6=Leavin' On Your Mind
TTITLE7=One Day I Walk
TTITLE8=Rock Me
TTITLE9=The Sweetest Thing
TTITLE10=Wide Awake
EXTD=I'M YER DADDY NOW!!!!!
EXTT0=
EXTT1=
EXTT2=
EXTT3=
EXTT4=
EXTT5=
EXTT6=
EXTT7=
EXTT8=
EXTT9=
EXTT10=
PLAYORDER=
